<?xml version="1.0" standalone="no"?>
<!DOCTYPE svg PUBLIC "-//W3C//DTD SVG 20010904//EN"
 "http://www.w3.org/TR/2001/REC-SVG-20010904/DTD/svg10.dtd">
<svg version="1.0" xmlns="http://www.w3.org/2000/svg"
 width="2048.000000pt" height="2048.000000pt" viewBox="0 0 2048.000000 2048.000000"
 preserveAspectRatio="xMidYMid meet">

<g transform="translate(0.000000,2048.000000) scale(0.100000,-0.100000)"
fill="#000000" stroke="none">
<path d="M8061 9264 c0 -11 3 -14 6 -6 3 7 2 16 -1 19 -3 4 -6 -2 -5 -13z"/>
<path d="M8051 9224 c0 -11 3 -14 6 -6 3 7 2 16 -1 19 -3 4 -6 -2 -5 -13z"/>
<path d="M8036 9163 c-6 -14 -5 -15 5 -6 7 7 10 15 7 18 -3 3 -9 -2 -12 -12z"/>
<path d="M7960 9050 c-22 -33 -38 -60 -36 -60 3 0 24 27 46 60 22 33 38 60 36
60 -3 0 -24 -27 -46 -60z"/>
<path d="M7902 8973 c-6 -2 -9 -10 -5 -16 4 -7 0 -8 -11 -4 -9 4 -14 3 -11 -2
3 -5 1 -12 -5 -16 -6 -4 -8 -11 -5 -16 4 -5 1 -9 -4 -9 -6 0 -11 -6 -11 -13 0
-7 -9 -23 -20 -35 -12 -12 -17 -22 -13 -22 4 0 0 -7 -10 -14 -10 -8 -19 -20
-21 -28 -1 -7 -14 -26 -29 -42 -15 -16 -27 -34 -27 -40 0 -12 -35 -46 -46 -46
-4 0 1 12 11 26 11 17 12 24 4 18 -8 -5 -23 -8 -34 -6 l-20 2 20 -9 c18 -8 16
-10 -15 -19 -32 -9 -33 -10 -8 -11 45 -2 59 -10 46 -30 -10 -17 -12 -17 -30 1
-10 10 -23 16 -29 13 -5 -4 -17 -1 -25 6 -12 10 -13 9 -8 -5 4 -12 0 -16 -15
-16 -12 0 -21 5 -21 11 0 7 -7 8 -17 4 -10 -4 -23 -8 -30 -8 -7 0 -11 -5 -10
-10 1 -6 -9 -14 -23 -18 -14 -4 -19 -7 -12 -8 27 -2 7 -71 -22 -71 -5 0 -1 6
9 14 18 13 18 14 -2 25 -22 11 -53 6 -53 -10 0 -4 6 -6 13 -3 10 4 12 -3 9
-26 -3 -25 -8 -29 -23 -25 -11 4 -19 2 -19 -4 0 -6 -5 -11 -11 -11 -5 0 -8 4
-5 9 6 10 -24 25 -32 16 -3 -3 1 -5 8 -5 11 0 11 -3 2 -12 -15 -15 -21 -9 -24
23 -3 20 2 24 30 27 32 3 43 17 20 25 -7 2 -22 1 -34 -4 -19 -7 -20 -5 -10 26
6 18 14 31 19 28 5 -3 6 5 2 17 -4 13 -3 20 2 17 5 -3 9 2 9 11 0 9 4 28 8 42
16 48 -2 14 -49 -95 -142 -328 -240 -625 -296 -902 -10 -47 -17 -63 -30 -63
-17 0 -34 26 -30 48 1 6 -3 12 -9 12 -6 0 -8 5 -5 10 3 6 1 10 -5 10 -6 0 -8
5 -5 11 4 6 13 8 21 5 7 -3 16 -1 19 4 3 4 -6 7 -19 6 -27 -3 -44 22 -48 72
-1 6 -5 12 -10 12 -5 0 -8 6 -7 13 1 6 -7 32 -17 57 -11 25 -26 64 -34 88 -7
23 -15 40 -18 38 -7 -8 50 -171 155 -441 33 -85 170 -363 197 -400 11 -15 14
-7 25 56 69 388 277 940 522 1381 27 49 46 94 43 100 -4 6 -3 8 3 5 5 -3 20
13 33 36 13 23 35 60 50 82 36 55 72 115 68 114 -2 0 -9 -3 -16 -6z m-362
-343 c0 -5 -4 -10 -10 -10 -5 0 -10 5 -10 10 0 6 5 10 10 10 6 0 10 -4 10 -10z
m90 0 c0 -5 -4 -10 -10 -10 -5 0 -10 5 -10 10 0 6 5 10 10 10 6 0 10 -4 10
-10z m-57 -21 c-21 -6 -33 -16 -33 -27 1 -16 1 -16 14 1 20 26 46 22 46 -8 0
-29 -8 -30 -55 -11 -24 10 -35 11 -35 4 0 -6 -2 -9 -5 -6 -10 10 8 40 29 48
12 5 32 9 46 8 22 0 21 -1 -7 -9z m62 -39 c3 -5 1 -10 -4 -10 -6 0 -11 5 -11
10 0 6 2 10 4 10 3 0 8 -4 11 -10z m-135 -60 c0 -5 -4 -10 -10 -10 -5 0 -10 5
-10 10 0 6 5 10 10 10 6 0 10 -4 10 -10z m-40 -20 c0 -5 -4 -10 -10 -10 -5 0
-10 5 -10 10 0 6 5 10 10 10 6 0 10 -4 10 -10z m-127 -14 c11 -11 17 -12 26
-3 8 8 11 6 11 -8 0 -10 -3 -15 -7 -12 -3 4 -13 1 -21 -6 -13 -9 -14 -9 -8 1
5 8 1 12 -13 12 -11 0 -23 -4 -26 -10 -3 -5 -13 -10 -21 -10 -12 0 -12 4 2 25
18 28 36 32 57 11z m83 -15 c-8 -12 -36 -4 -36 11 0 5 5 6 10 3 6 -3 10 -1 10
6 0 10 3 10 11 2 6 -6 8 -16 5 -22z m28 -7 c3 -8 2 -12 -4 -9 -6 3 -10 10 -10
16 0 14 7 11 14 -7z"/>
<path d="M8290 8900 c-6 -11 -8 -20 -6 -20 3 0 10 9 16 20 6 11 8 20 6 20 -3
0 -10 -9 -16 -20z"/>
<path d="M8259 8848 c-6 -12 -23 -43 -37 -67 -15 -25 -21 -42 -15 -38 6 4 14
1 17 -5 3 -7 3 -3 0 10 -3 12 -1 22 5 22 6 0 11 6 11 14 0 8 5 16 11 18 5 2
11 10 12 18 2 8 6 21 11 28 4 7 6 16 3 19 -3 2 -11 -6 -18 -19z"/>
<path d="M8680 8830 c-6 -11 -8 -20 -6 -20 3 0 10 9 16 20 6 11 8 20 6 20 -3
0 -10 -9 -16 -20z"/>
<path d="M8641 8771 c-8 -5 -9 -11 -3 -15 5 -3 12 1 16 9 6 17 6 18 -13 6z"/>
<path d="M7383 8762 c-7 -4 -9 -13 -4 -21 6 -9 10 -7 14 8 3 12 4 21 4 21 -1
0 -7 -4 -14 -8z"/>
<path d="M8146 8648 c-252 -463 -454 -1007 -551 -1483 -76 -370 -105 -660
-105 -1035 0 -360 30 -646 102 -962 l31 -138 404 0 c221 0 403 2 403 5 0 3
-13 32 -30 65 -39 78 -121 284 -155 390 -64 203 -112 443 -140 694 -24 219
-18 707 10 842 4 20 13 21 182 27 363 14 845 87 1232 187 112 30 118 30 375
30 l261 0 164 -164 164 -164 2 -55 c5 -110 75 -216 173 -264 50 -25 68 -28
152 -28 84 0 101 3 146 27 67 35 138 115 160 180 25 77 16 188 -21 257 -38 68
-102 125 -174 152 -76 28 -185 24 -256 -11 l-49 -24 -171 177 -170 177 -1042
0 c-989 0 -1043 1 -1043 18 0 14 52 215 76 294 5 17 84 18 1409 20 772 2 1401
0 1398 -5 -2 -4 54 -67 125 -140 71 -72 178 -183 237 -244 l108 -113 183 0
182 0 35 -49 c91 -127 247 -174 392 -120 77 29 155 107 185 186 46 122 9 267
-91 357 -61 54 -126 78 -219 78 -111 0 -227 -66 -275 -156 l-20 -36 -125 0
-126 0 -39 40 c-21 21 -43 36 -48 33 -6 -3 -7 -1 -3 5 8 14 -372 414 -386 406
-5 -3 -7 0 -6 8 3 11 -243 14 -1407 16 -775 2 -1412 5 -1414 8 -2 2 19 59 47
126 28 68 57 138 63 156 l11 32 609 1 c335 1 614 3 619 4 6 1 161 3 347 4 326
1 435 7 225 12 -57 1 -105 6 -108 11 -3 4 -14 8 -24 8 -10 0 -20 4 -22 8 -1 5
-16 12 -31 16 -21 5 -27 4 -21 -5 4 -7 3 -9 -4 -5 -5 3 -13 0 -15 -6 -4 -10
-6 -10 -6 0 -1 6 -10 12 -21 12 -11 0 -20 -6 -20 -12 0 -7 -5 -5 -11 5 -13 22
-89 25 -89 2 0 -16 1 -16 -51 -19 -31 -2 -35 1 -31 16 7 29 -61 25 -76 -4 -6
-13 -11 -17 -11 -10 -1 14 -31 17 -31 2 0 -5 -7 -10 -16 -10 -8 0 -13 4 -10 9
3 5 -1 12 -10 15 -10 4 -13 2 -8 -7 5 -9 4 -9 -7 1 -7 6 -24 12 -39 13 -24 0
-24 1 -4 9 28 11 40 30 19 30 -9 0 -13 -4 -10 -10 4 -6 -17 -10 -54 -10 -34 0
-61 4 -61 10 0 6 -5 10 -11 10 -6 0 -8 -9 -4 -22 6 -22 5 -22 -6 -3 -18 30
-18 30 -34 9 -13 -16 -14 -16 -9 -1 3 9 1 17 -5 17 -22 0 -10 17 21 32 l32 15
-72 1 c-51 1 -78 6 -88 17 -18 17 -30 19 -39 5 -3 -5 2 -10 12 -11 12 -1 10
-3 -7 -8 -14 -4 -28 -3 -31 2 -12 17 -2 42 15 41 20 -2 20 3 2 22 -19 18 -27
18 -20 0 3 -9 -4 -19 -17 -27 -21 -11 -21 -13 -6 -24 15 -11 16 -14 2 -25 -13
-11 -14 -10 -9 4 7 18 -24 35 -35 19 -3 -5 -14 -1 -24 9 -18 19 -17 21 28 32
11 2 0 4 -25 5 -25 0 -74 4 -110 9 l-65 9 55 3 c30 1 79 3 108 3 28 1 52 4 52
7 0 3 16 4 35 2 19 -2 35 -9 35 -16 0 -6 5 -4 10 4 8 13 10 13 10 1 0 -12 3
-11 13 2 10 13 19 15 52 7 22 -4 67 -6 100 -3 33 2 72 5 87 6 14 1 24 5 21 10
-2 4 11 7 29 7 23 0 29 -3 19 -9 -20 -13 24 -19 68 -9 19 3 43 3 52 -3 10 -5
20 -5 23 0 3 5 19 11 35 13 17 2 28 1 25 -4 -3 -4 4 -8 15 -8 11 0 22 4 25 8
2 4 464 9 1026 11 980 3 1022 2 1043 -16 l22 -18 -19 23 -19 22 -1647 0
c-1456 0 -1649 -2 -1654 -15 -3 -10 1 -15 12 -15 15 -1 15 -2 1 -13 -9 -7 -14
-18 -11 -26 3 -10 -2 -11 -18 -6 -18 6 -22 4 -17 -8 6 -17 -33 -42 -55 -34 -7
2 -21 -2 -30 -11 -15 -13 -20 -13 -35 -1 -9 8 -14 9 -10 2 4 -6 -6 -26 -22
-44 -17 -18 -27 -37 -24 -42 3 -5 9 -3 14 4 5 8 9 9 9 3 0 -6 -6 -17 -14 -23
-11 -9 -15 -7 -20 11 -6 21 -7 21 -17 6 -6 -11 -22 -18 -37 -18 l-27 1 30 14
30 13 -37 1 c-20 1 -39 -4 -41 -11 -3 -7 -6 -3 -6 10 -1 12 -6 22 -12 22 -6 0
-8 -7 -5 -16 4 -10 1 -14 -6 -11 -7 2 -12 11 -10 20 1 8 -2 18 -8 22 -6 4 -9
1 -8 -6 2 -6 -3 -14 -11 -17 -8 -3 -11 0 -7 6 10 16 -32 35 -60 28 -14 -4 -24
-2 -24 4 0 5 5 10 10 10 6 0 10 4 10 10 0 5 -6 7 -14 4 -15 -6 -16 12 -2 34 4
7 5 16 2 19 -3 4 0 16 7 27 16 25 28 56 22 56 -2 0 -24 -37 -49 -82z m651 36
c-3 -3 -12 -4 -19 -1 -8 3 -5 6 6 6 11 1 17 -2 13 -5z m7 -29 c-5 -11 2 -15
27 -16 19 0 28 -3 21 -6 -7 -3 -30 -2 -50 2 -35 6 -36 8 -17 21 24 18 26 18
19 -1z m-104 -5 c0 -5 -5 -10 -11 -10 -5 0 -7 5 -4 10 3 6 8 10 11 10 2 0 4
-4 4 -10z m444 -8 c2 -4 -4 -13 -14 -20 -12 -7 -21 -8 -25 -2 -9 14 -43 12
-48 -2 -2 -7 -8 -10 -12 -5 -12 10 -1 18 37 27 46 11 56 11 62 2z m-211 -9
c-7 -2 -19 -2 -25 0 -7 3 -2 5 12 5 14 0 19 -2 13 -5z m-293 -13 c0 -5 -2 -10
-4 -10 -3 0 -8 5 -11 10 -3 6 -1 10 4 10 6 0 11 -4 11 -10z m60 -6 c0 -8 -4
-12 -10 -9 -5 3 -10 10 -10 16 0 5 5 9 10 9 6 0 10 -7 10 -16z m195 -4 c-3 -5
-10 -10 -16 -10 -5 0 -9 5 -9 10 0 6 7 10 16 10 8 0 12 -4 9 -10z m65 0 c0 -5
-2 -10 -4 -10 -3 0 -8 5 -11 10 -3 6 -1 10 4 10 6 0 11 -4 11 -10z m-403 -42
c-3 -8 -6 -5 -6 6 -1 11 2 17 5 13 3 -3 4 -12 1 -19z m-397 -28 c0 -5 -4 -10
-10 -10 -5 0 -10 5 -10 10 0 6 5 10 10 10 6 0 10 -4 10 -10z m325 -10 c3 -5
-1 -10 -9 -10 -9 0 -16 5 -16 10 0 6 4 10 9 10 6 0 13 -4 16 -10z m-225 -20
c0 -5 -5 -10 -11 -10 -5 0 -7 5 -4 10 3 6 8 10 11 10 2 0 4 -4 4 -10z m-137
-22 c-11 -13 -18 -29 -16 -35 3 -7 0 -13 -6 -13 -6 0 -11 5 -11 10 0 6 -5 10
-11 10 -5 0 -7 -4 -4 -10 3 -5 1 -10 -4 -10 -18 0 -12 20 7 27 9 3 25 14 35
25 26 26 34 22 10 -4z m1697 4 c0 -4 -11 -8 -24 -8 -14 0 -22 4 -20 8 3 4 14
8 25 8 10 0 19 -4 19 -8z m-1503 -17 c0 -8 -5 -12 -10 -8 -5 3 -4 -4 2 -16 13
-23 26 -29 18 -8 -9 24 7 35 38 29 l30 -6 -25 -7 c-24 -7 -24 -7 -2 -8 27 -1
30 -21 2 -21 -27 0 -21 -22 10 -37 22 -11 18 -11 -25 -5 -27 4 -67 7 -88 7
-30 0 -34 2 -22 11 13 10 9 14 -25 28 -23 9 -53 14 -68 10 -25 -5 -26 -4 -9 9
18 15 18 15 0 20 -10 3 21 5 70 4 48 0 90 3 94 6 9 10 10 9 10 -8z m100 -42
c-4 -3 -2 -12 4 -20 7 -8 8 -13 1 -13 -12 0 -23 26 -15 34 4 3 9 6 11 6 3 0 2
-3 -1 -7z m-319 -21 c-10 -2 -18 -7 -18 -11 0 -5 -11 -8 -24 -8 -21 0 -22 1
-9 17 10 11 23 15 41 11 19 -3 22 -6 10 -9z m119 2 c-3 -3 -12 -4 -19 -1 -8 3
-5 6 6 6 11 1 17 -2 13 -5z m66 -41 c-7 -2 -21 -2 -30 0 -10 3 -4 5 12 5 17 0
24 -2 18 -5z m80 -10 c-7 -2 -21 -2 -30 0 -10 3 -4 5 12 5 17 0 24 -2 18 -5z
m2437 -273 c0 -5 -10 -6 -22 -3 -18 4 -20 3 -8 -6 17 -12 91 -6 100 8 3 5 73
12 156 14 125 4 151 3 151 -9 0 -8 -4 -14 -9 -14 -4 0 -8 -8 -7 -17 0 -11 3
-13 6 -5 2 6 11 12 19 12 9 0 12 5 8 12 -4 7 -3 8 5 4 6 -4 9 -11 6 -16 -3 -5
-1 -11 5 -15 5 -3 10 1 10 10 0 9 5 13 11 10 6 -4 8 -13 5 -20 -2 -7 3 -12 12
-11 9 0 17 -4 17 -10 0 -6 8 -19 18 -29 15 -14 16 -20 5 -27 -10 -7 -10 -8 2
-6 21 3 62 -21 55 -33 -4 -5 -1 -9 4 -9 19 0 12 -18 -10 -25 -11 -4 -18 -12
-16 -18 5 -16 48 -18 67 -4 9 7 8 4 -3 -9 -9 -11 -14 -24 -10 -27 3 -4 -1 -7
-10 -7 -10 0 -17 5 -17 11 0 5 -4 8 -8 5 -5 -3 -22 3 -38 13 -29 18 -54 18
-54 0 0 -5 12 -9 26 -9 28 0 25 -15 -6 -23 -11 -3 -18 -1 -14 4 3 5 -2 9 -10
9 -10 0 -16 9 -16 21 0 16 -4 19 -22 14 -17 -5 -19 -4 -9 3 12 9 12 11 0 15
-15 5 8 0 44 -9 14 -3 9 2 -13 14 -29 17 -31 20 -15 25 18 4 17 5 -2 6 -13 0
-23 -4 -23 -9 0 -7 -7 -7 -21 1 -16 8 -23 8 -29 -1 -5 -9 -12 -6 -23 10 -9 13
-29 23 -48 25 -19 2 -56 7 -83 10 -26 4 -46 3 -43 -2 3 -5 -3 -10 -14 -10 -10
-1 -19 2 -19 6 0 5 -8 11 -18 13 -10 3 -18 15 -19 28 -1 12 -3 24 -5 26 -2 1
-36 4 -75 5 -63 2 -71 4 -70 20 1 11 6 19 13 19 6 0 17 6 24 14 11 15 40 11
40 -4z m25 10 c3 -5 1 -10 -4 -10 -6 0 -11 5 -11 10 0 6 2 10 4 10 3 0 8 -4
11 -10z m-362 -7 c-13 -2 -33 -2 -45 0 -13 2 -3 4 22 4 25 0 35 -2 23 -4z m42
-61 c-3 -3 -11 0 -18 7 -9 10 -8 11 6 5 10 -3 15 -9 12 -12z m343 -26 c0 -16
-5 -23 -14 -19 -10 4 -11 9 -1 24 15 24 15 24 15 -5z m-118 -6 c-8 -5 -19 -10
-25 -10 -5 0 -3 5 5 10 8 5 20 10 25 10 6 0 3 -5 -5 -10z m1495 -220 c3 -6 -1
-7 -9 -4 -18 7 -21 14 -7 14 6 0 13 -4 16 -10z m-741 -6 c9 -3 16 -11 16 -17
0 -6 -3 -7 -7 -4 -3 4 -13 1 -21 -6 -13 -9 -14 -9 -8 1 4 7 2 12 -4 12 -6 0
-8 5 -5 10 7 12 8 12 29 4z m66 -49 c0 -7 -30 -13 -34 -7 -3 4 4 9 15 9 10 1
19 0 19 -2z m84 -83 c3 -5 -1 -9 -9 -9 -8 0 -12 4 -9 9 3 4 7 8 9 8 2 0 6 -4
9 -8z m633 -33 c126 -48 108 -228 -25 -246 -137 -18 -195 188 -69 242 39 17
58 18 94 4z m-1386 -592 c50 -33 73 -85 60 -135 -32 -117 -180 -130 -237 -20
-18 35 -18 62 3 105 33 70 111 92 174 50z"/>
<path d="M8180 8461 c8 -5 31 -11 50 -15 l35 -6 -30 15 c-33 16 -82 21 -55 6z"/>
<path d="M8318 8413 c7 -3 16 -2 19 1 4 3 -2 6 -13 5 -11 0 -14 -3 -6 -6z"/>
<path d="M11130 8090 c-9 -6 -10 -10 -3 -10 6 0 15 5 18 10 8 12 4 12 -15 0z"/>
<path d="M10913 8083 c20 -2 54 -2 75 0 20 2 3 4 -38 4 -41 0 -58 -2 -37 -4z"/>
<path d="M10908 8043 c6 -2 18 -2 25 0 6 3 1 5 -13 5 -14 0 -19 -2 -12 -5z"/>
<path d="M11077 8039 c7 -7 15 -10 18 -7 3 3 -2 9 -12 12 -14 6 -15 5 -6 -5z"/>
<path d="M11161 8024 c0 -11 3 -14 6 -6 3 7 2 16 -1 19 -3 4 -6 -2 -5 -13z"/>
<path d="M11210 8020 c12 -8 12 -10 1 -10 -8 0 -12 -2 -9 -5 3 -3 13 -2 22 1
14 5 15 9 4 15 -7 5 -17 9 -23 9 -5 0 -3 -5 5 -10z"/>
<path d="M10929 7983 c-13 -17 -13 -17 6 -3 11 8 22 16 24 17 2 2 0 3 -6 3 -6
0 -17 -8 -24 -17z"/>
<path d="M11045 7990 c-3 -6 1 -7 9 -4 18 7 21 14 7 14 -6 0 -13 -4 -16 -10z"/>
<path d="M11160 7966 c0 -9 5 -16 10 -16 6 0 10 4 10 9 0 6 -4 13 -10 16 -5 3
-10 -1 -10 -9z"/>
<path d="M8226 8707 c3 -10 9 -15 12 -12 3 3 0 11 -7 18 -10 9 -11 8 -5 -6z"/>
<path d="M9340 8681 c0 -12 39 -25 47 -17 4 3 -1 6 -10 6 -9 0 -17 5 -17 10 0
6 -4 10 -10 10 -5 0 -10 -4 -10 -9z"/>
<path d="M9445 8660 c3 -5 8 -10 11 -10 2 0 4 5 4 10 0 6 -5 10 -11 10 -5 0
-7 -4 -4 -10z"/>
<path d="M9503 8663 c-21 -4 -41 -33 -23 -33 6 0 10 5 10 10 0 6 9 10 20 10
11 0 20 5 20 10 0 6 -1 9 -2 9 -2 -1 -13 -4 -25 -6z"/>
<path d="M9340 8640 c0 -5 5 -10 11 -10 5 0 7 5 4 10 -3 6 -8 10 -11 10 -2 0
-4 -4 -4 -10z"/>
<path d="M8180 8622 c0 -4 9 -8 20 -8 11 0 20 4 20 8 0 4 -9 8 -20 8 -11 0
-20 -4 -20 -8z"/>
<path d="M8245 8620 c-6 -9 46 -10 62 -2 9 6 2 8 -22 8 -20 -1 -38 -3 -40 -6z"/>
<path d="M7360 8610 c0 -5 7 -10 15 -10 8 0 15 5 15 10 0 6 -7 10 -15 10 -8 0
-15 -4 -15 -10z"/>
<path d="M8348 8613 c6 -2 18 -2 25 0 6 3 1 5 -13 5 -14 0 -19 -2 -12 -5z"/>
<path d="M9388 8613 c6 -2 18 -2 25 0 6 3 1 5 -13 5 -14 0 -19 -2 -12 -5z"/>
<path d="M8295 8591 c-3 -5 0 -13 6 -17 7 -4 9 -3 5 4 -3 5 0 13 6 15 9 4 10
6 1 6 -6 1 -14 -3 -18 -8z"/>
<path d="M8240 8580 c-23 -7 -23 -8 -3 -9 12 -1 25 4 28 9 3 6 5 10 3 9 -2 -1
-14 -5 -28 -9z"/>
<path d="M8392 8573 c-6 -2 -10 -9 -6 -14 3 -5 -4 -9 -15 -9 -12 0 -21 -5 -21
-11 0 -18 32 -5 48 19 15 23 15 24 -6 15z"/>
<path d="M9780 8550 c0 -5 9 -10 20 -10 11 0 20 5 20 10 0 6 -9 10 -20 10 -11
0 -20 -4 -20 -10z"/>
<path d="M9859 8546 c13 -5 29 -5 42 0 17 8 13 9 -21 9 -34 0 -38 -1 -21 -9z"/>
<path d="M9720 8539 c0 -5 5 -7 10 -4 6 3 10 8 10 11 0 2 -4 4 -10 4 -5 0 -10
-5 -10 -11z"/>
<path d="M13193 8533 c9 -2 23 -2 30 0 6 3 -1 5 -18 5 -16 0 -22 -2 -12 -5z"/>
<path d="M10023 8523 c9 -2 25 -2 35 0 9 3 1 5 -18 5 -19 0 -27 -2 -17 -5z"/>
<path d="M13080 8510 c-8 -5 -10 -10 -5 -10 6 0 17 5 25 10 8 5 11 10 5 10 -5
0 -17 -5 -25 -10z"/>
<path d="M12160 8475 c19 -19 36 -35 39 -35 3 0 -10 16 -29 35 -19 19 -36 35
-39 35 -3 0 10 -16 29 -35z"/>
<path d="M13029 8479 l-24 -20 28 17 c15 9 27 18 27 20 0 8 -8 4 -31 -17z"/>
<path d="M10468 8463 c17 -2 47 -2 65 0 17 2 3 4 -33 4 -36 0 -50 -2 -32 -4z"/>
<path d="M10623 8463 c9 -2 23 -2 30 0 6 3 -1 5 -18 5 -16 0 -22 -2 -12 -5z"/>
<path d="M10723 8463 c32 -2 81 -2 110 0 29 2 3 3 -58 3 -60 0 -84 -1 -52 -3z"/>
<path d="M13445 8428 c22 -27 41 -48 43 -48 7 0 -36 56 -59 75 -12 11 -5 -1
16 -27z"/>
<path d="M13496 8351 c4 -14 13 -38 20 -55 10 -23 13 -26 13 -11 0 11 -9 36
-20 55 -14 25 -18 28 -13 11z"/>
<path d="M12035 8222 l140 -142 125 2 125 2 -125 3 -124 4 -134 132 c-73 73
-136 134 -140 137 -4 2 56 -60 133 -138z"/>
<path d="M12338 8333 c7 -3 16 -2 19 1 4 3 -2 6 -13 5 -11 0 -14 -3 -6 -6z"/>
<path d="M12578 8333 c12 -2 32 -2 45 0 12 2 2 4 -23 4 -25 0 -35 -2 -22 -4z"/>
<path d="M13343 8210 c0 -25 2 -35 4 -22 2 12 2 32 0 45 -2 12 -4 2 -4 -23z"/>
<path d="M13533 8215 c0 -22 2 -30 4 -17 2 12 2 30 0 40 -3 9 -5 -1 -4 -23z"/>
<path d="M13081 8184 c0 -11 3 -14 6 -6 3 7 2 16 -1 19 -3 4 -6 -2 -5 -13z"/>
<path d="M13120 8116 c0 -3 9 -10 20 -16 11 -6 20 -8 20 -6 0 3 -9 10 -20 16
-11 6 -20 8 -20 6z"/>
<path d="M12553 8083 c65 -2 168 -2 230 0 62 1 9 3 -118 3 -126 0 -177 -2
-112 -3z"/>
<path d="M12958 8014 c28 -41 82 -81 132 -99 51 -18 156 -30 163 -19 3 5 -21
9 -52 10 -63 1 -134 21 -126 35 4 5 -1 6 -9 3 -10 -4 -36 14 -73 48 -40 38
-51 44 -35 22z"/>
<path d="M13446 8001 c-9 -10 -37 -31 -61 -47 -25 -15 -43 -30 -41 -32 6 -5
87 51 110 77 11 11 17 21 14 21 -3 0 -13 -9 -22 -19z"/>
<path d="M13280 7910 c-12 -8 -12 -10 5 -10 11 0 27 5 35 10 12 8 12 10 -5 10
-11 0 -27 -5 -35 -10z"/>
</g>
</svg>
